<svg width="40" height="32" viewBox="0 0 40 32" fill="none" xmlns="http://www.w3.org/2000/svg">
<g filter="url(#filter0_d_26_33)">
<path d="M17.4295 23.6626C17.3694 23.3938 17.3315 23.1823 17.296 22.9843C17.1112 22.9122 17.0077 23.0261 16.9056 23.1036C12.2117 26.6654 5.1694 25.3456 1.83053 19.9645C-1.74167 14.2073 -0.0496406 6.46312 6.59115 3.40414C9.9863 1.8404 13.3531 2.07682 16.513 4.18601C16.716 4.32155 16.9218 4.45301 17.1859 4.62551C17.3243 4.09363 17.3345 3.51516 17.8672 3.21317C18.3684 2.929 18.919 2.9442 19.4677 2.94568C19.9611 2.94698 20.4552 2.93521 20.9479 2.95304C22.17 2.99702 22.6924 3.51548 22.6968 4.73031C22.7077 7.69887 22.7001 10.6674 22.7006 13.636C22.7011 16.6863 22.7059 19.7366 22.7013 22.7869C22.6993 24.0521 22.3074 24.4322 21.0243 24.4378C20.2294 24.4412 19.4345 24.4331 18.6394 24.4283C18.1037 24.4251 17.6773 24.2378 17.4295 23.6626ZM12.3878 19.83C16.232 18.9549 18.2629 15.3171 16.928 11.6975C15.735 8.46259 11.9898 6.84113 9.01153 8.26982C6.22004 9.60891 4.8289 12.4421 5.60256 15.2125C6.4641 18.2979 9.08559 20.1326 12.3878 19.83Z" fill="white"/>
<path d="M24.4892 22.2959C23.1031 19.5376 24.9198 16.5894 27.6525 16.3752C30.663 16.1392 32.8799 19.2191 31.6576 21.9948C30.985 23.5225 29.7652 24.3057 28.1896 24.4203C26.5701 24.5381 25.3389 23.7393 24.4892 22.2959Z" fill="#F5AF15"/>
</g>
<defs>
<filter id="filter0_d_26_33" x="0" y="0.391235" width="40" height="30.7032" filterUnits="userSpaceOnUse" color-interpolation-filters="sRGB">
<feFlood flood-opacity="0" result="BackgroundImageFix"/>
<feColorMatrix in="SourceAlpha" type="matrix" values="0 0 0 0 0 0 0 0 0 0 0 0 0 0 0 0 0 0 127 0" result="hardAlpha"/>
<feOffset dx="4" dy="2"/>
<feGaussianBlur stdDeviation="2"/>
<feComposite in2="hardAlpha" operator="out"/>
<feColorMatrix type="matrix" values="0 0 0 0 0 0 0 0 0 0 0 0 0 0 0 0 0 0 0.25 0"/>
<feBlend mode="normal" in2="BackgroundImageFix" result="effect1_dropShadow_26_33"/>
<feBlend mode="normal" in="SourceGraphic" in2="effect1_dropShadow_26_33" result="shape"/>
</filter>
</defs>
</svg>
