<svg width="1213" height="319" viewBox="0 0 1213 319" fill="none" xmlns="http://www.w3.org/2000/svg">
<g filter="url(#filter0_d_24_3)">
<path d="M274.852 297.368C244.597 277.946 229.314 249.798 227.732 215.329C225.189 159.938 267.417 111.562 325.406 111.098C345.472 110.937 363.397 118.053 377.86 132.405C388.014 142.483 396.652 153.794 404.444 165.957C399.791 156.374 395.746 146.433 390.351 137.285C380.062 119.841 375.616 101.439 376.862 81.166C377.78 66.2307 376.911 51.188 376.936 36.1946C376.953 24.7595 380.949 20.3189 392.334 19.5745C398.602 19.1638 404.938 19.1174 411.205 19.5136C421.954 20.1942 425.795 24.4344 425.797 35.1454C425.801 88.3377 425.585 141.531 425.776 194.722C425.904 230.347 451.318 259.204 485.992 262.417C517.566 265.343 546.939 258.104 573.903 240.966C599.573 224.651 618.668 203.606 629.927 174.692C643 141.115 668.081 120.265 703.944 112.777C748.65 103.44 798.51 132.042 812.495 175.467C815.107 183.577 813.942 187.389 805.433 192.055C785.499 202.988 765.437 213.708 745.174 224.015C728.366 232.565 711.845 241.725 694.365 248.926C686.52 252.159 678.574 255.022 670.289 256.897C644.982 262.623 622.174 274.46 599.383 286.2C576.591 297.94 553.014 307.277 527.24 309.027C494.775 311.23 462.27 312.584 432.688 294.832C422.019 288.429 412.89 280.281 404.601 270.686C367.803 311.542 325.638 324.585 274.852 297.368ZM379.782 212.893C381.26 186.044 361.091 159.858 330.35 157.813C300.133 155.805 275.484 181.258 275.974 212.851C276.411 241.116 300.665 265.456 328.468 265.534C354.998 265.61 378.765 241.837 379.782 212.893ZM719.897 185.181C729.53 179.401 740.209 175.41 749.482 168.816C740.307 156.892 719.126 154.3 701.619 162.393C683.148 170.933 669.989 192.979 673.91 210.161C689.077 201.93 704.021 193.818 719.897 185.181Z" fill="#F7F7F7"/>
<path d="M153.877 298.873C153.346 296.487 153.012 294.61 152.698 292.852C151.067 292.212 150.153 293.224 149.252 293.912C107.811 325.524 45.6382 313.81 16.1609 266.051C-15.3764 214.953 -0.438254 146.22 58.1902 119.07C88.1644 105.191 117.889 107.29 145.785 126.01C147.578 127.213 149.394 128.379 151.726 129.91C152.948 125.19 153.038 120.056 157.742 117.375C162.166 114.853 167.027 114.988 171.871 115.001C176.227 115.013 180.589 114.908 184.939 115.067C195.729 115.457 200.34 120.059 200.38 130.841C200.476 157.188 200.409 183.535 200.413 209.882C200.417 236.955 200.46 264.028 200.419 291.101C200.401 302.33 196.942 305.704 185.613 305.753C178.596 305.784 171.578 305.711 164.559 305.669C159.829 305.64 156.065 303.978 153.877 298.873ZM109.366 264.857C143.305 257.09 161.234 224.803 149.45 192.677C138.917 163.966 105.853 149.575 79.5587 162.255C54.9138 174.14 42.6321 199.286 49.4624 223.874C57.0686 251.259 80.2125 267.543 109.366 264.857Z" fill="#F7F7F7"/>
<path d="M510.742 225.87C496.58 220.876 483.814 214.657 474.505 203.089C451.454 174.445 462.702 131.935 497.559 117.525C525.944 105.792 553.538 110.993 580.377 123.369C586.357 126.127 586.94 131.457 585.02 136.989C582.725 143.605 580.038 150.092 577.337 156.558C573.494 165.754 569.871 167.651 560.332 164.481C549.027 160.724 537.711 157.401 525.653 157.638C523.719 157.675 521.729 157.551 519.865 157.958C515.243 158.967 510.864 160.515 509.916 166.054C508.985 171.492 511.991 174.796 516.397 177.031C527.863 182.85 540.138 186.681 552.124 191.207C563.799 195.617 574.769 201.045 583.066 210.76C590.096 218.99 589.9 220.994 581.624 227.463C572.582 234.532 562.298 239.392 552.014 244.254C550.054 245.18 547.696 246.341 546.106 243.97C539.574 234.225 528.62 232.499 518.817 228.678C516.338 227.713 513.797 226.907 510.742 225.87Z" fill="#F7F7F7"/>
<path d="M757.866 305.39C716.794 318.914 681.576 310.363 651.818 279.825C644.638 272.456 645.3 270.657 655.333 267.865C668.36 264.237 681.777 262.041 694.485 257.219C697.095 256.228 699.745 256.576 702.108 258.219C723.367 273.012 752.377 261.406 765.164 244.07C773.409 232.89 776.867 232.397 788.659 239.608C793.196 242.382 797.703 245.235 802 248.36C810.297 254.389 811.206 258.545 805.678 267.354C794.345 285.411 778.118 297.521 757.866 305.39Z" fill="#F7F7F7"/>
<path fill-rule="evenodd" clip-rule="evenodd" d="M629.926 174.692C643 141.115 668.081 120.265 703.944 112.777C748.649 103.44 798.51 132.042 812.495 175.467C815.107 183.577 813.942 187.389 805.433 192.055C785.499 202.988 765.437 213.708 745.174 224.015C728.366 232.565 711.845 241.725 694.364 248.926C686.52 252.159 681.667 255.151 670.289 256.897C670.289 260.23 622.705 274.185 600.179 285.789L599.383 286.2C576.59 297.94 553.013 307.277 527.24 309.027C523.26 309.297 519.28 309.554 515.305 309.766C515.336 309.763 515.382 309.76 515.382 309.76C505.861 310.45 620.575 302.127 593.038 226.823C605.388 214.519 621.674 195.884 629.926 174.692ZM749.482 168.816C740.209 175.41 729.53 179.401 719.897 185.181C704.021 193.818 689.077 201.93 673.91 210.161C669.988 192.979 683.148 170.933 701.619 162.393C719.125 154.3 740.306 156.892 749.482 168.816Z" fill="#378FD3"/>
<path d="M1188.53 266.033C1188.6 275.704 1188.68 284.649 1188.72 293.594C1188.77 301.948 1185.36 305.53 1176.99 305.773C1170.23 305.971 1163.46 305.984 1156.7 306.123C1148.22 306.297 1141.62 304.022 1141.32 292.41C1111.28 313.673 1080.15 317.875 1047.28 303.8C1028.28 295.659 1013.32 282.662 1002.76 264.767C979.222 224.858 984.285 173.286 1015.62 140.388C1031.87 123.322 1052.16 113.914 1075.79 111.533C1099.52 109.14 1120.72 115.345 1140.22 129.883C1141.69 125.241 1141.68 120.597 1145.57 117.844C1149.26 115.229 1153.52 116.348 1157.54 115.856C1162.85 115.207 1168.16 115.052 1173.48 115.551C1186.02 116.731 1188.49 119.384 1188.5 131.842C1188.53 172.946 1188.53 214.05 1188.53 255.153C1188.53 258.538 1188.53 261.924 1188.53 266.033ZM1090.89 157.876C1070.06 158.035 1053.8 166.876 1043.4 184.764C1032.51 203.494 1033.54 222.719 1044.54 241.194C1056.75 261.687 1083.26 270.587 1106.05 262.281C1128.86 253.97 1144.2 228.975 1140.55 206.092C1136.1 178.254 1121.11 163.381 1090.89 157.876Z" fill="#3790D5"/>
<path d="M953.129 112.472C957.657 111.981 961.5 112.215 965.298 113.17C970.914 114.582 974.202 118.249 974.398 123.922C974.681 132.129 974.75 140.378 974.28 148.572C973.688 158.884 970.007 162.206 959.476 161.882C939.648 161.27 922.156 166.069 908.639 181.666C900.061 191.564 895.088 202.931 894.877 215.906C894.479 240.561 894.672 265.225 894.617 289.886C894.589 302.002 891.085 305.611 879.243 305.659C872.465 305.686 865.686 305.73 858.909 305.643C849.141 305.517 845.38 301.849 845.268 291.909C845.112 277.888 845.223 263.864 845.215 249.841C845.199 210.916 845.181 171.99 845.166 133.064C845.16 117.491 857.948 109.255 872.291 115.561C875.44 116.946 876.063 119.511 874.609 122.103C872.133 126.512 870.42 130.825 875.689 134.046C881.32 137.488 885.774 134.981 889.25 130.06C889.353 129.913 889.684 129.929 890.108 129.818C892.982 131.639 892.175 135.454 894.594 138.543C910.522 122.377 929.742 113.406 953.129 112.472Z" fill="#378ED3"/>
<path d="M757.866 305.39C716.794 318.914 681.576 310.363 651.818 279.825C644.638 272.456 645.3 270.657 655.333 267.865C668.36 264.237 681.777 262.041 694.485 257.219C697.095 256.228 699.745 256.576 702.108 258.219C723.367 273.012 752.377 261.406 765.164 244.07C773.409 232.89 776.867 232.397 788.659 239.608C793.196 242.382 797.703 245.235 802 248.36C810.297 254.389 811.206 258.545 805.678 267.354C794.345 285.411 778.118 297.521 757.866 305.39Z" fill="#378ED3"/>
<path d="M1122.48 65.5995C1107.39 35.5692 1127.17 3.47106 1156.92 1.13905C1189.69 -1.43096 1213.83 32.1009 1200.52 62.3213C1193.2 78.953 1179.92 87.48 1162.77 88.728C1145.13 90.0108 1131.73 81.3141 1122.48 65.5995Z" fill="#F5AF15"/>
<path d="M884.353 107.859H855.294C849.677 107.859 845.124 112.407 845.124 118.017V295.058C845.124 300.668 849.677 305.216 855.294 305.216H884.353C889.97 305.216 894.524 300.668 894.524 295.058V118.017C894.524 112.407 889.97 107.859 884.353 107.859Z" fill="#378FD2"/>
</g>
<defs>
<filter id="filter0_d_24_3" x="0" y="0" width="1212.25" height="319" filterUnits="userSpaceOnUse" color-interpolation-filters="sRGB">
<feFlood flood-opacity="0" result="BackgroundImageFix"/>
<feColorMatrix in="SourceAlpha" type="matrix" values="0 0 0 0 0 0 0 0 0 0 0 0 0 0 0 0 0 0 127 0" result="hardAlpha"/>
<feOffset dx="4" dy="3"/>
<feGaussianBlur stdDeviation="2"/>
<feComposite in2="hardAlpha" operator="out"/>
<feColorMatrix type="matrix" values="0 0 0 0 0 0 0 0 0 0 0 0 0 0 0 0 0 0 0.25 0"/>
<feBlend mode="normal" in2="BackgroundImageFix" result="effect1_dropShadow_24_3"/>
<feBlend mode="normal" in="SourceGraphic" in2="effect1_dropShadow_24_3" result="shape"/>
</filter>
</defs>
</svg>
